<svg viewBox="0 0 254 59" fill="none" xmlns="http://www.w3.org/2000/svg">
<path d="M8.33322 46.6669C7.41656 46.6669 6.63183 46.3405 5.97906 45.6877C5.32628 45.035 4.99989 44.2502 4.99989 43.3336V24.5419C4.49989 24.2363 4.09711 23.8405 3.79155 23.3544C3.486 22.8683 3.33322 22.3058 3.33322 21.6669V16.6669C3.33322 15.7502 3.65961 14.9655 4.31239 14.3127C4.96517 13.6599 5.74989 13.3336 6.66656 13.3336H33.3332C34.2499 13.3336 35.0346 13.6599 35.6874 14.3127C36.3402 14.9655 36.6666 15.7502 36.6666 16.6669V21.6669C36.6666 22.3058 36.5138 22.8683 36.2082 23.3544C35.9027 23.8405 35.4999 24.2363 34.9999 24.5419V43.3336C34.9999 44.2502 34.6735 45.035 34.0207 45.6877C33.368 46.3405 32.5832 46.6669 31.6666 46.6669H8.33322ZM8.33322 25.0002V43.3336H31.6666V25.0002H8.33322ZM6.66656 21.6669H33.3332V16.6669H6.66656V21.6669ZM14.9999 33.3336H24.9999V30.0002H14.9999V33.3336Z" fill="#011627"/>
<path d="M50.984 47V13.4H58.76V47H50.984Z" fill="#011627"/>
<path d="M81.902 20.792C83.95 20.792 85.774 21.208 87.374 22.04C89.006 22.84 90.286 24.088 91.214 25.784C92.142 27.448 92.606 29.592 92.606 32.216V47H85.118V33.368C85.118 31.288 84.654 29.752 83.726 28.76C82.83 27.768 81.55 27.272 79.886 27.272C78.702 27.272 77.63 27.528 76.67 28.04C75.742 28.52 75.006 29.272 74.462 30.296C73.95 31.32 73.694 32.632 73.694 34.232V47H66.206V21.176H73.358V28.328L72.014 26.168C72.942 24.44 74.27 23.112 75.998 22.184C77.726 21.256 79.694 20.792 81.902 20.792Z" fill="#011627"/>
<path d="M105.933 47L95.0847 21.176H102.813L111.837 43.4H107.997L117.357 21.176H124.557L113.661 47H105.933Z" fill="#011627"/>
<path d="M139.725 47.384C136.781 47.384 134.189 46.808 131.949 45.656C129.741 44.504 128.029 42.936 126.813 40.952C125.597 38.936 124.989 36.648 124.989 34.088C124.989 31.496 125.581 29.208 126.765 27.224C127.981 25.208 129.629 23.64 131.709 22.52C133.789 21.368 136.141 20.792 138.765 20.792C141.293 20.792 143.565 21.336 145.581 22.424C147.629 23.48 149.245 25.016 150.429 27.032C151.613 29.016 152.205 31.4 152.205 34.184C152.205 34.472 152.189 34.808 152.157 35.192C152.125 35.544 152.093 35.88 152.061 36.2H131.085V31.832H148.125L145.245 33.128C145.245 31.784 144.973 30.616 144.429 29.624C143.885 28.632 143.133 27.864 142.173 27.32C141.213 26.744 140.093 26.456 138.813 26.456C137.533 26.456 136.397 26.744 135.405 27.32C134.445 27.864 133.693 28.648 133.149 29.672C132.605 30.664 132.333 31.848 132.333 33.224V34.376C132.333 35.784 132.637 37.032 133.245 38.12C133.885 39.176 134.765 39.992 135.885 40.568C137.037 41.112 138.381 41.384 139.917 41.384C141.293 41.384 142.493 41.176 143.517 40.76C144.573 40.344 145.533 39.72 146.397 38.888L150.381 43.208C149.197 44.552 147.709 45.592 145.917 46.328C144.125 47.032 142.061 47.384 139.725 47.384Z" fill="#011627"/>
<path d="M172.886 20.792C174.934 20.792 176.758 21.208 178.358 22.04C179.99 22.84 181.27 24.088 182.198 25.784C183.126 27.448 183.59 29.592 183.59 32.216V47H176.102V33.368C176.102 31.288 175.638 29.752 174.71 28.76C173.814 27.768 172.534 27.272 170.87 27.272C169.686 27.272 168.614 27.528 167.654 28.04C166.726 28.52 165.99 29.272 165.446 30.296C164.934 31.32 164.678 32.632 164.678 34.232V47H157.19V21.176H164.342V28.328L162.998 26.168C163.926 24.44 165.254 23.112 166.982 22.184C168.71 21.256 170.678 20.792 172.886 20.792Z" fill="#011627"/>
<path d="M200.938 47.384C197.898 47.384 195.53 46.616 193.834 45.08C192.138 43.512 191.29 41.192 191.29 38.12V15.464H198.778V38.024C198.778 39.112 199.066 39.96 199.642 40.568C200.218 41.144 201.002 41.432 201.994 41.432C203.178 41.432 204.186 41.112 205.018 40.472L207.034 45.752C206.266 46.296 205.338 46.712 204.25 47C203.194 47.256 202.09 47.384 200.938 47.384ZM187.306 27.512V21.752H205.21V27.512H187.306Z" fill="#011627"/>
<path d="M211.237 47V21.176H218.725V47H211.237ZM214.981 17.576C213.605 17.576 212.485 17.176 211.621 16.376C210.757 15.576 210.325 14.584 210.325 13.4C210.325 12.216 210.757 11.224 211.621 10.424C212.485 9.624 213.605 9.224 214.981 9.224C216.357 9.224 217.477 9.608 218.341 10.376C219.205 11.112 219.637 12.072 219.637 13.256C219.637 14.504 219.205 15.544 218.341 16.376C217.509 17.176 216.389 17.576 214.981 17.576Z" fill="#011627"/>
<path d="M237.963 47.384C235.211 47.384 232.763 46.808 230.619 45.656C228.507 44.504 226.827 42.936 225.579 40.952C224.363 38.936 223.755 36.648 223.755 34.088C223.755 31.496 224.363 29.208 225.579 27.224C226.827 25.208 228.507 23.64 230.619 22.52C232.763 21.368 235.211 20.792 237.963 20.792C240.683 20.792 243.115 21.368 245.259 22.52C247.403 23.64 249.083 25.192 250.299 27.176C251.515 29.16 252.123 31.464 252.123 34.088C252.123 36.648 251.515 38.936 250.299 40.952C249.083 42.936 247.403 44.504 245.259 45.656C243.115 46.808 240.683 47.384 237.963 47.384ZM237.963 41.24C239.211 41.24 240.331 40.952 241.323 40.376C242.315 39.8 243.099 38.984 243.675 37.928C244.251 36.84 244.539 35.56 244.539 34.088C244.539 32.584 244.251 31.304 243.675 30.248C243.099 29.192 242.315 28.376 241.323 27.8C240.331 27.224 239.211 26.936 237.963 26.936C236.715 26.936 235.595 27.224 234.603 27.8C233.611 28.376 232.811 29.192 232.203 30.248C231.627 31.304 231.339 32.584 231.339 34.088C231.339 35.56 231.627 36.84 232.203 37.928C232.811 38.984 233.611 39.8 234.603 40.376C235.595 40.952 236.715 41.24 237.963 41.24Z" fill="#011627"/>
</svg>
